<svg xmlns="http://www.w3.org/2000/svg" viewBox="0 0 170.13 166.47"><defs><style>.cls-1{fill:none;}</style></defs><g id="Layer_2" data-name="Layer 2"><g id="Layer_1-2" data-name="Layer 1"><path class="cls-1" d="M77.07,87.08A54.48,54.48,0,0,1,0,54.25,54.49,54.49,0,0,1,77.07,87.08Z"/><path class="cls-1" d="M85.71,94.61a54.47,54.47,0,0,1,43.05,71.86,54.5,54.5,0,0,1-43-71.86Z"/><path class="cls-1" d="M83.14,83.44A54.46,54.46,0,0,1,90.55,0a54.46,54.46,0,0,1-7.41,83.44Z"/><path class="cls-1" d="M88.48,88.09a54.48,54.48,0,0,1,81.65-18.74A54.47,54.47,0,0,1,88.48,88.09Z"/></g></g></svg>